<svg width="20" height="20" viewBox="0 0 20 20" fill="none" xmlns="http://www.w3.org/2000/svg">
<path d="M1.18273 7.00943C0.0794046 4.79522 1.19265 2.35157 3.31397 1.07877C4.3353 0.465978 5.65528 0.731923 6.35963 1.6924L7.92229 3.82331C8.5874 4.73027 8.68934 5.93307 8.18636 6.93904L7.77663 7.75849C7.65802 7.99571 7.63927 8.27012 7.7606 8.50595C7.98164 8.93562 8.45236 9.69705 9.35915 10.6038C10.266 11.5106 11.0274 11.9814 11.4571 12.2024C11.6929 12.3237 11.9673 12.305 12.2045 12.1864L13.024 11.7766C14.0299 11.2737 15.2327 11.3756 16.1397 12.0407L18.2706 13.6034C19.2311 14.3077 19.497 15.6277 18.8842 16.649C17.6114 18.7704 15.1678 19.8836 12.9536 18.7803C11.0874 17.8504 8.70279 16.3114 6.17717 13.7858C3.65156 11.2602 2.11261 8.87556 1.18273 7.00943Z" fill="#6F767E"/>
</svg>
